Coordinates
version=1
nRows=16
nColumns=40
inDegrees=yes

Units are S.I. units (second, meters, Newtons, ...)
If the header above contains a line with 'inDegrees', this indicates whether rotational values are in degrees (yes) or radians (no).

endheader
time	pelvis_tilt	pelvis_list	pelvis_rotation	pelvis_tx	pelvis_ty	pelvis_tz	hip_flexion_r	hip_adduction_r	hip_rotation_r	knee_angle_r	knee_angle_r_beta	ankle_angle_r	subtalar_angle_r	mtp_angle_r	hip_flexion_l	hip_adduction_l	hip_rotation_l	knee_angle_l	knee_angle_l_beta	ankle_angle_l	subtalar_angle_l	mtp_angle_l	lumbar_extension	lumbar_bending	lumbar_rotation	arm_flex_r	arm_add_r	arm_rot_r	elbow_flex_r	pro_sup_r	wrist_flex_r	wrist_dev_r	arm_flex_l	arm_add_l	arm_rot_l	elbow_flex_l	pro_sup_l	wrist_flex_l	wrist_dev_l
      5.22500000	    -29.65693624	     13.83390650	     -0.99980089	     -0.31932286	      0.79993424	     -1.04077025	     40.03414885	    -10.51071171	     -2.40649641	    113.46994813	      1.98042420	    -28.27663557	      0.00000000	      0.00000000	     77.70236430	      8.46207673	    -17.63978203	     77.02624353	      1.34436156	     30.67835614	      0.00000000	      0.00000000	     -0.65865859	    -21.93087961	     -0.86632227	     89.96173409	     -9.94019108	      8.12564220	     47.72922616	     86.00157056	      0.00000000	      0.00000000	     89.97159565	    -16.89456433	     14.65254897	     53.51635061	     85.60890496	      0.00000000	      0.00000000
      5.23000000	    -29.56458045	     13.79279462	     -1.05857570	     -0.31955260	      0.80074807	     -1.04085698	     40.19883654	    -10.37510391	     -2.42865615	    113.44314382	      1.97995637	    -28.20358955	      0.00000000	      0.00000000	     77.55570665	      8.45613421	    -17.56429348	     76.89035326	      1.34198983	     30.59588359	      0.00000000	      0.00000000	     -0.69323509	    -21.85528170	     -0.80249160	     89.96157196	    -10.01362362	      8.11177037	     47.64219786	     85.99795987	      0.00000000	      0.00000000	     89.97155863	    -16.86236832	     14.71615196	     53.48266878	     85.61719022	      0.00000000	      0.00000000
      5.23500000	    -29.45512516	     13.73020119	     -1.11191523	     -0.31971143	      0.80171261	     -1.04082900	     40.35282923	    -10.24985149	     -2.45889413	    113.44064312	      1.97991273	    -28.12368349	      0.00000000	      0.00000000	     77.36769398	      8.41682623	    -17.50083504	     76.75559134	      1.33963779	     30.51554607	      0.00000000	      0.00000000	     -0.74234681	    -21.78059397	     -0.78213173	     89.96147670	    -10.05797181	      8.10363138	     47.61180839	     85.99598809	      0.00000000	      0.00000000	     89.97151162	    -16.79070714	     14.74307392	     53.42644329	     85.61862926	      0.00000000	      0.00000000
      5.24000000	    -29.34618972	     13.68505301	     -1.17222020	     -0.31993837	      0.80260811	     -1.04087449	     40.51136298	    -10.14113972	     -2.50261105	    113.41241081	      1.97941998	    -28.01981812	      0.00000000	      0.00000000	     77.19631304	      8.39693825	    -17.42473672	     76.62042262	      1.33727865	     30.42798422	      0.00000000	      0.00000000	     -0.79445116	    -21.70681180	     -0.70760614	     89.96135717	    -10.14339009	      8.08017481	     47.52928904	     85.99155246	      0.00000000	      0.00000000	     89.97145511	    -16.79575076	     14.79190324	     53.38400593	     85.62469573	      0.00000000	      0.00000000
      5.24500000	    -29.26388499	     13.66271333	     -1.18047657	     -0.32013981	      0.80350622	     -1.04102691	     40.70687950	    -10.06061892	     -2.47258513	    113.41571434	      1.97947764	    -27.92097492	      0.00000000	      0.00000000	     77.07339008	      8.40110208	    -17.40390060	     76.53801175	      1.33584031	     30.41499373	      0.00000000	      0.00000000	     -0.82653253	    -21.65967482	     -0.72501529	     89.96118186	    -10.19891251	      8.07384015	     47.48317298	     85.98916911	      0.00000000	      0.00000000	     89.97138293	    -16.77019999	     14.84144917	     53.34772677	     85.63033084	      0.00000000	      0.00000000
      5.25000000	    -29.15700269	     13.61094379	     -1.26219621	     -0.32032742	      0.80443481	     -1.04097980	     40.85071460	     -9.92294886	     -2.54279668	    113.38123423	      1.97887585	    -27.86365305	      0.00000000	      0.00000000	     76.85591889	      8.34663414	    -17.32152221	     76.33182449	      1.33224166	     30.28087838	      0.00000000	      0.00000000	     -0.86757720	    -21.58255499	     -0.66732288	     89.96103172	    -10.24870307	      8.12369287	     47.35915270	     85.99105840	      0.00000000	      0.00000000	     89.97136746	    -16.76810845	     14.93127310	     53.30546501	     85.63797658	      0.00000000	      0.00000000
      5.25500000	    -29.03815643	     13.57487353	     -1.29200402	     -0.32045944	      0.80539787	     -1.04107396	     41.00013907	     -9.81491484	     -2.56275573	    113.35184735	      1.97836295	    -27.79517206	      0.00000000	      0.00000000	     76.68733775	      8.32453029	    -17.29941850	     76.27035944	      1.33116889	     30.26479412	      0.00000000	      0.00000000	     -0.92382999	    -21.53486799	     -0.67289630	     89.96096716	    -10.30148444	      8.13444011	     47.29112105	     85.98919258	      0.00000000	      0.00000000	     89.97134360	    -16.75310470	     15.02201570	     53.23273524	     85.64614968	      0.00000000	      0.00000000
      5.26000000	    -28.98597653	     13.55112113	     -1.35666466	     -0.32050151	      0.80628465	     -1.04121606	     41.20870533	     -9.76191651	     -2.59945494	    113.32819454	      1.97795013	    -27.79764388	      0.00000000	      0.00000000	     76.53220067	      8.25672953	    -17.30921837	     76.10779217	      1.32833156	     30.20154605	      0.00000000	      0.00000000	     -0.88637558	    -21.47933483	     -0.61284910	     89.96075403	    -10.36357194	      8.18895432	     47.19092977	     85.99051361	      0.00000000	      0.00000000	     89.97117916	    -16.77257493	     15.09181757	     53.16810196	     85.65305341	      0.00000000	      0.00000000
      5.26500000	    -28.88109410	     13.53837776	     -1.43662303	     -0.32065429	      0.80720694	     -1.04119745	     41.38297611	     -9.65257635	     -2.54017866	    113.31308806	      1.97768647	    -27.80321961	      0.00000000	      0.00000000	     76.35137967	      8.18848898	    -17.30256636	     75.97304385	      1.32597976	     30.09520609	      0.00000000	      0.00000000	     -0.89901484	    -21.45363389	     -0.57129255	     89.96057698	    -10.42083891	      8.31601000	     47.03705974	     85.99545838	      0.00000000	      0.00000000	     89.97115598	    -16.75846687	     15.24815236	     53.05639297	     85.66601422	      0.00000000	      0.00000000
      5.27000000	    -28.77922430	     13.51222273	     -1.46988386	     -0.32085044	      0.80804694	     -1.04129073	     41.54888561	     -9.65254123	     -2.58298279	    113.34969711	      1.97832542	    -27.80607815	      0.00000000	      0.00000000	     76.19112261	      8.13555438	    -17.29373905	     75.88328164	      1.32441311	     30.01844393	      0.00000000	      0.00000000	     -0.93959323	    -21.40473174	     -0.57689263	     89.96046387	    -10.47052766	      8.33052826	     46.99357521	     85.99471659	      0.00000000	      0.00000000	     89.97113629	    -16.77372776	     15.28828983	     53.03431705	     85.66831621	      0.00000000	      0.00000000
      5.27500000	    -28.66341639	     13.50823531	     -1.52542739	     -0.32097609	      0.80910725	     -1.04133869	     41.67024853	     -9.59301803	     -2.59201972	    113.28243932	      1.97715155	    -27.89888859	      0.00000000	      0.00000000	     75.96261834	      8.09068297	    -17.31931431	     75.66881657	      1.32066999	     29.80240465	      0.00000000	      0.00000000	     -0.96734710	    -21.39953633	     -0.55850223	     89.96044156	    -10.52796812	      8.41844375	     46.82145448	     85.99696890	      0.00000000	      0.00000000	     89.97104975	    -16.75274927	     15.42980676	     52.92927209	     85.67613246	      0.00000000	      0.00000000
      5.28000000	    -28.56237559	     13.47047074	     -1.49996701	     -0.32144866	      0.81002361	     -1.04139398	     41.85822254	     -9.56083010	     -2.66686596	    113.33962355	      1.97814960	    -27.95105822	      0.00000000	      0.00000000	     75.81273763	      8.04211051	    -17.35711259	     75.57169301	      1.31897486	     29.73062615	      0.00000000	      0.00000000	     -1.05286532	    -21.34427210	     -0.62566668	     89.96035828	    -10.57871734	      8.42541179	     46.80625519	     85.99455068	      0.00000000	      0.00000000	     89.97112656	    -16.75472827	     15.44846130	     52.91518084	     85.67549001	      0.00000000	      0.00000000
      5.28500000	    -28.45711053	     13.41821212	     -1.49600005	     -0.32162164	      0.81100643	     -1.04154052	     41.98931879	     -9.50745450	     -2.70268769	    113.33269401	      1.97802866	    -28.01373353	      0.00000000	      0.00000000	     75.61481422	      7.99933341	    -17.36601337	     75.40974609	      1.31614836	     29.59269008	      0.00000000	      0.00000000	     -1.10557761	    -21.27152317	     -0.68542337	     89.96010003	    -10.62509576	      8.48736563	     46.69005377	     85.99580943	      0.00000000	      0.00000000	     89.97104007	    -16.74003547	     15.49606290	     52.85383956	     85.67583706	      0.00000000	      0.00000000
      5.29000000	    -28.38804223	     13.41358416	     -1.55009601	     -0.32157618	      0.81198775	     -1.04170529	     42.14725222	     -9.53910127	     -2.77534352	    113.26637419	      1.97687116	    -28.07322867	      0.00000000	      0.00000000	     75.43539589	      7.94871356	    -17.40237320	     75.24476497	      1.31326889	     29.45324156	      0.00000000	      0.00000000	     -1.08209525	    -21.22135091	     -0.66741050	     89.95996996	    -10.63535945	      8.58346808	     46.57764677	     85.99975805	      0.00000000	      0.00000000	     89.97091234	    -16.81776383	     15.57313278	     52.78762601	     85.67857472	      0.00000000	      0.00000000
      5.29500000	    -28.28393125	     13.41774914	     -1.50996778	     -0.32193119	      0.81294142	     -1.04177007	     42.32533002	     -9.57427531	     -2.72861893	    113.30831219	      1.97760312	    -28.13175989	      0.00000000	      0.00000000	     75.25015809	      7.94191753	    -17.46902997	     75.07936974	      1.31038220	     29.26776208	      0.00000000	      0.00000000	     -1.13635068	    -21.23752615	     -0.78619941	     89.95989640	    -10.67749079	      8.70423220	     46.43368860	     86.00113593	      0.00000000	      0.00000000	     89.97091466	    -16.75669433	     15.64027632	     52.68946478	     85.67907301	      0.00000000	      0.00000000
      5.30000000	    -28.07359726	     13.47667001	     -1.50450665	     -0.32184708	      0.81426273	     -1.04203852	     42.31396841	     -9.73716625	     -2.81539266	    113.25237639	      1.97662685	    -28.41929567	      0.00000000	      0.00000000	     74.89328713	      7.97270903	    -17.60689834	     74.84943035	      1.30636900	     28.95393044	      0.00000000	      0.00000000	     -1.28563037	    -21.27369938	     -0.90241565	     89.95993143	    -10.71424505	      8.98946805	     46.27561973	     86.00072131	      0.00000000	      0.00000000	     89.97096819	    -16.90623971	     15.88123700	     52.57706193	     85.67466481	      0.00000000	      0.00000000
